<?xml version="1.0" encoding="utf-8"?>
<!-- Generator: Adobe Illustrator 21.1.0, SVG Export Plug-In . SVG Version: 6.00 Build 0)  -->
<svg version="1.1" id="Capa_1" xmlns="http://www.w3.org/2000/svg" xmlns:xlink="http://www.w3.org/1999/xlink" x="0px" y="0px"
	 viewBox="0 0 612 612" style="enable-background:new 0 0 612 612;" xml:space="preserve">
<style type="text/css">
	.st0{fill:#3D3D3D;}
	.st1{enable-background:new    ;}
</style>
<g>
	<path class="st0" d="M130.9,342.2c0,31.6,23.6,57.8,54.7,62.9l10.9,0.9h218.9l10.9-0.9c31.1-5,54.7-31.3,54.7-62.9
		c0-27.8-18.3-51.4-43.8-60.2c-0.9-55-47.1-99.3-103.9-99.3c-41,0-76.5,23.1-93.4,56.6c-8-8.6-19.6-14-32.5-14
		c-24.2,0-43.8,19.1-43.8,42.5c0,6.1,1.3,12,3.7,17.2C145.8,295.5,130.9,317.2,130.9,342.2z M186.5,290.7l-5.3-13.7
		c-1.2-2.6-1.8-5.4-1.8-8.4c0-11.4,11.6-28.4,29.7-28.4c6.2,0,13.5,3.1,17.7,7.5l17.1,11.9l14.5-19.4c16.5-24.6,44.3-41.5,75.6-41.5
		c44.2,0,87.9,42.1,88.5,84.3v14.9l15.4,4.1c17.3,5.8,29,21.6,29,39.1c0,20.3-20.8,45.8-41.8,49.2h-9.6h-61.8v15.4h-16.1v-71.5h32.1
		L306,262.4l-63.7,71.7h31.8v71.7h-15.9v-15.4h-60l-7.3-0.6c-21-3.3-44.2-28.2-44.2-48.6C146.8,325.2,160.4,299.8,186.5,290.7z"/>
</g>
<g class="st1">
	<path class="st0" d="M17.3,478.3c1.4,0,2.6-0.3,3.5-0.8c0.9-0.5,1.7-1.3,2.2-2.2c0.6-0.9,1-1.9,1.2-3c0.2-1.1,0.4-2.3,0.4-3.5
		v-13.5h4.2v13.5c0,1.8-0.2,3.5-0.6,5.1s-1.1,3-2,4.2c-0.9,1.2-2.1,2.2-3.6,2.9c-1.5,0.7-3.2,1-5.3,1c-2.1,0-3.9-0.4-5.4-1.1
		c-1.5-0.7-2.6-1.7-3.5-3c-0.9-1.2-1.5-2.7-1.9-4.2c-0.4-1.6-0.6-3.3-0.6-5v-13.5h4.2v13.5c0,1.2,0.1,2.4,0.4,3.5
		c0.2,1.1,0.6,2.1,1.2,3s1.3,1.6,2.2,2.1C14.8,478.1,16,478.3,17.3,478.3z"/>
	<path class="st0" d="M45,482.3c-1.6,0-3-0.4-4.2-1.1c-1.2-0.7-2.1-1.7-2.8-2.9v11.6h-4.1v-27.5h3.6v3.5c0.7-1.2,1.7-2.1,2.9-2.8
		c1.2-0.7,2.5-1,4-1c1.3,0,2.6,0.3,3.7,0.8c1.1,0.5,2.1,1.3,2.9,2.2c0.8,0.9,1.5,2,1.9,3.2c0.5,1.2,0.7,2.5,0.7,3.9
		c0,1.4-0.2,2.8-0.6,4c-0.4,1.2-1,2.3-1.8,3.2c-0.8,0.9-1.7,1.6-2.8,2.2C47.4,482,46.3,482.3,45,482.3z M43.7,478.8
		c0.9,0,1.7-0.2,2.4-0.6c0.7-0.4,1.3-0.9,1.8-1.5c0.5-0.6,0.9-1.3,1.2-2.1c0.3-0.8,0.4-1.6,0.4-2.5c0-0.9-0.2-1.7-0.5-2.5
		s-0.7-1.5-1.3-2.1c-0.5-0.6-1.2-1.1-1.9-1.4s-1.6-0.5-2.4-0.5c-0.5,0-1.1,0.1-1.6,0.3c-0.6,0.2-1.1,0.5-1.6,0.8
		c-0.5,0.3-0.9,0.8-1.3,1.2c-0.4,0.5-0.6,1-0.8,1.5v5.1c0.2,0.6,0.6,1.2,1,1.7c0.4,0.5,0.8,1,1.3,1.3c0.5,0.4,1,0.7,1.6,0.9
		C42.5,478.7,43.1,478.8,43.7,478.8z"/>
	<path class="st0" d="M57.4,454.6h4.1v21.7c0,0.7,0.2,1.3,0.6,1.7c0.4,0.4,0.9,0.6,1.6,0.6c0.3,0,0.6,0,1-0.2c0.4-0.1,0.7-0.2,1-0.3
		l0.6,3.2c-0.6,0.3-1.3,0.5-2.1,0.7c-0.8,0.2-1.6,0.2-2.2,0.2c-1.4,0-2.5-0.4-3.3-1.2c-0.8-0.8-1.2-1.9-1.2-3.3V454.6z"/>
	<path class="st0" d="M77.5,482.3c-1.5,0-2.9-0.3-4.2-0.8c-1.2-0.5-2.3-1.3-3.2-2.2c-0.9-0.9-1.5-2-2-3.2s-0.7-2.5-0.7-3.9
		s0.2-2.6,0.7-3.9s1.2-2.3,2-3.2c0.9-0.9,1.9-1.7,3.2-2.2s2.6-0.8,4.1-0.8c1.5,0,2.9,0.3,4.1,0.8c1.2,0.5,2.3,1.3,3.2,2.2
		c0.9,0.9,1.6,2,2,3.2c0.5,1.2,0.7,2.5,0.7,3.9s-0.2,2.6-0.7,3.9c-0.5,1.2-1.2,2.3-2,3.2s-1.9,1.7-3.2,2.2
		C80.4,482,79,482.3,77.5,482.3z M71.6,472.2c0,0.9,0.1,1.8,0.4,2.6s0.7,1.5,1.2,2.1c0.5,0.6,1.1,1,1.9,1.4c0.7,0.3,1.5,0.5,2.3,0.5
		c0.8,0,1.6-0.2,2.3-0.5c0.7-0.3,1.3-0.8,1.9-1.4c0.5-0.6,0.9-1.3,1.2-2.1c0.3-0.8,0.4-1.7,0.4-2.6c0-0.9-0.1-1.8-0.4-2.6
		c-0.3-0.8-0.7-1.5-1.2-2.1c-0.5-0.6-1.1-1.1-1.9-1.4c-0.7-0.3-1.5-0.5-2.3-0.5c-0.8,0-1.6,0.2-2.3,0.5c-0.7,0.3-1.3,0.8-1.9,1.4
		c-0.5,0.6-0.9,1.3-1.3,2.1S71.6,471.3,71.6,472.2z"/>
	<path class="st0" d="M96.4,482.3c-0.9,0-1.8-0.2-2.6-0.5c-0.8-0.3-1.5-0.7-2.1-1.3c-0.6-0.5-1-1.2-1.4-1.9
		c-0.3-0.7-0.5-1.6-0.5-2.4c0-0.9,0.2-1.8,0.6-2.5c0.4-0.7,1-1.4,1.7-1.9c0.7-0.5,1.6-1,2.6-1.3c1-0.3,2.1-0.4,3.4-0.4
		c0.9,0,1.8,0.1,2.7,0.2c0.9,0.2,1.7,0.4,2.4,0.7v-1.3c0-1.4-0.4-2.6-1.2-3.4c-0.8-0.8-2-1.2-3.6-1.2c-1,0-2.1,0.2-3.1,0.6
		s-2.1,0.9-3.1,1.7l-1.3-2.6c2.5-1.7,5.1-2.5,7.9-2.5c2.7,0,4.8,0.7,6.3,2.1c1.5,1.4,2.2,3.3,2.2,5.9v7.1c0,0.9,0.4,1.3,1.1,1.3v3.5
		c-0.4,0.1-0.7,0.1-1,0.1c-0.3,0-0.6,0-0.8,0c-0.8,0-1.4-0.2-1.9-0.6c-0.4-0.4-0.7-0.9-0.8-1.5l-0.1-1.2c-0.9,1.1-2,2-3.2,2.6
		S97.9,482.3,96.4,482.3z M97.5,479.3c1,0,1.9-0.2,2.8-0.5c0.9-0.4,1.6-0.9,2.1-1.5c0.5-0.4,0.8-0.9,0.8-1.4v-2.6
		c-0.7-0.3-1.4-0.5-2.2-0.6s-1.6-0.2-2.3-0.2c-1.5,0-2.7,0.3-3.6,1c-0.9,0.6-1.4,1.5-1.4,2.5c0,1,0.4,1.8,1.1,2.5
		C95.5,478.9,96.4,479.3,97.5,479.3z"/>
	<path class="st0" d="M120.3,482.3c-1.3,0-2.5-0.3-3.7-0.8s-2.1-1.3-2.9-2.2c-0.8-0.9-1.5-2-1.9-3.2c-0.5-1.2-0.7-2.6-0.7-4
		c0-1.4,0.2-2.7,0.7-3.9c0.4-1.2,1-2.3,1.8-3.2c0.8-0.9,1.7-1.7,2.8-2.2c1.1-0.5,2.2-0.8,3.5-0.8c1.6,0,3,0.4,4.2,1.1
		c1.2,0.8,2.1,1.7,2.8,2.9v-11.5h4.1v22.5c0,0.5,0.1,0.8,0.2,1c0.2,0.2,0.5,0.3,0.9,0.3v3.5c-0.4,0.1-0.8,0.1-1,0.1
		c-0.3,0-0.5,0-0.7,0c-0.8,0-1.5-0.2-2-0.6c-0.5-0.4-0.8-1-0.9-1.6l-0.1-1.5c-0.7,1.2-1.7,2.2-3,2.9
		C123.2,481.9,121.8,482.3,120.3,482.3z M121.3,478.8c0.6,0,1.2-0.1,1.8-0.3c0.6-0.2,1.1-0.5,1.6-0.8s0.9-0.8,1.3-1.2
		c0.4-0.5,0.6-1,0.8-1.5v-5.1c-0.2-0.6-0.5-1.2-1-1.7c-0.4-0.5-0.9-1-1.4-1.3c-0.5-0.4-1.1-0.7-1.7-0.9c-0.6-0.2-1.2-0.3-1.8-0.3
		c-0.8,0-1.6,0.2-2.3,0.6c-0.7,0.4-1.3,0.9-1.8,1.5c-0.5,0.6-0.9,1.3-1.2,2.1c-0.3,0.8-0.4,1.6-0.4,2.5c0,0.9,0.2,1.7,0.5,2.5
		c0.3,0.8,0.7,1.5,1.3,2.1c0.5,0.6,1.2,1.1,1.9,1.4C119.7,478.6,120.5,478.8,121.3,478.8z"/>
	<path class="st0" d="M156.5,482.3c-1.6,0-3-0.4-4.2-1.1c-1.2-0.7-2.1-1.7-2.8-2.9v11.6h-4.1v-27.5h3.6v3.5c0.7-1.2,1.7-2.1,2.9-2.8
		c1.2-0.7,2.5-1,4-1c1.3,0,2.6,0.3,3.7,0.8c1.1,0.5,2.1,1.3,2.9,2.2c0.8,0.9,1.5,2,1.9,3.2c0.5,1.2,0.7,2.5,0.7,3.9
		c0,1.4-0.2,2.8-0.6,4c-0.4,1.2-1,2.3-1.8,3.2c-0.8,0.9-1.7,1.6-2.8,2.2C158.9,482,157.8,482.3,156.5,482.3z M155.2,478.8
		c0.9,0,1.7-0.2,2.4-0.6c0.7-0.4,1.3-0.9,1.8-1.5c0.5-0.6,0.9-1.3,1.2-2.1c0.3-0.8,0.4-1.6,0.4-2.5c0-0.9-0.2-1.7-0.5-2.5
		s-0.7-1.5-1.3-2.1c-0.5-0.6-1.2-1.1-1.9-1.4s-1.6-0.5-2.4-0.5c-0.5,0-1.1,0.1-1.6,0.3c-0.6,0.2-1.1,0.5-1.6,0.8
		c-0.5,0.3-0.9,0.8-1.3,1.2c-0.4,0.5-0.6,1-0.8,1.5v5.1c0.2,0.6,0.6,1.2,1,1.7c0.4,0.5,0.8,1,1.3,1.3c0.5,0.4,1,0.7,1.6,0.9
		C154,478.7,154.6,478.8,155.2,478.8z"/>
	<path class="st0" d="M168.9,459.1v-4.5h4.1v4.5H168.9z M168.9,481.9v-19.6h4.1v19.6H168.9z"/>
	<path class="st0" d="M176.7,472.1c0-1.4,0.2-2.7,0.7-3.9s1.2-2.3,2-3.2s2-1.7,3.2-2.2c1.2-0.5,2.6-0.8,4.2-0.8c2,0,3.8,0.4,5.2,1.3
		c1.5,0.9,2.6,2.1,3.3,3.5l-4,1.3c-0.5-0.8-1.1-1.5-1.9-1.9c-0.8-0.5-1.7-0.7-2.7-0.7c-0.8,0-1.6,0.2-2.3,0.5
		c-0.7,0.3-1.3,0.8-1.9,1.4c-0.5,0.6-0.9,1.3-1.2,2.1s-0.4,1.7-0.4,2.7c0,0.9,0.2,1.8,0.5,2.6c0.3,0.8,0.7,1.5,1.3,2.1
		c0.5,0.6,1.2,1.1,1.9,1.4c0.7,0.3,1.5,0.5,2.3,0.5c0.5,0,1-0.1,1.5-0.2c0.5-0.1,1-0.3,1.4-0.6c0.4-0.2,0.8-0.5,1.1-0.9
		c0.3-0.3,0.5-0.7,0.7-1l4,1.2c-0.6,1.5-1.7,2.7-3.3,3.6c-1.5,0.9-3.3,1.4-5.4,1.4c-1.5,0-2.9-0.3-4.2-0.8c-1.2-0.5-2.3-1.3-3.2-2.2
		c-0.9-0.9-1.6-2-2.1-3.2C176.9,474.8,176.7,473.5,176.7,472.1z"/>
	<path class="st0" d="M209.8,480.9c-0.5,0.2-1.2,0.5-2.2,0.8c-0.9,0.3-1.9,0.5-3,0.5c-0.6,0-1.3-0.1-1.8-0.3
		c-0.6-0.2-1.1-0.4-1.5-0.8c-0.4-0.3-0.8-0.8-1-1.4c-0.2-0.6-0.4-1.2-0.4-2v-12.2h-2.6v-3.2h2.6v-6.4h4.1v6.4h4.3v3.2H204v10.9
		c0,0.7,0.3,1.2,0.7,1.5c0.4,0.3,0.9,0.5,1.4,0.5c0.6,0,1.1-0.1,1.6-0.3c0.5-0.2,0.9-0.4,1.2-0.5L209.8,480.9z"/>
	<path class="st0" d="M218.6,482.3c-2,0-3.6-0.7-4.6-2c-1-1.3-1.6-3.3-1.6-6v-12h4.1v11.2c0,3.5,1.2,5.3,3.7,5.3
		c1.2,0,2.3-0.4,3.3-1.1c1-0.7,1.9-1.8,2.4-3.1v-12.2h4.1v14.7c0,0.5,0.1,0.8,0.2,1c0.2,0.2,0.5,0.3,0.9,0.3v3.5
		c-0.4,0.1-0.8,0.1-1,0.1c-0.3,0-0.5,0-0.8,0c-0.7,0-1.4-0.2-1.9-0.6c-0.5-0.4-0.8-0.9-0.8-1.6l-0.1-1.9c-0.9,1.4-2,2.5-3.4,3.2
		C221.8,481.9,220.3,482.3,218.6,482.3z"/>
	<path class="st0" d="M246.4,465.9c-1.6,0.1-3,0.4-4.2,1.1c-1.2,0.7-2.1,1.7-2.6,2.9v12h-4.1v-19.6h3.8v4.4c0.7-1.3,1.6-2.4,2.6-3.2
		c1.1-0.8,2.3-1.3,3.5-1.3c0.2,0,0.5,0,0.6,0c0.2,0,0.3,0,0.4,0V465.9z"/>
	<path class="st0" d="M257.3,482.3c-1.5,0-2.9-0.3-4.2-0.8c-1.2-0.5-2.3-1.3-3.2-2.2c-0.9-0.9-1.6-2-2.1-3.2
		c-0.5-1.2-0.7-2.5-0.7-3.9s0.2-2.7,0.7-3.9c0.5-1.2,1.2-2.3,2.1-3.3c0.9-0.9,2-1.7,3.2-2.2c1.2-0.5,2.6-0.8,4.2-0.8
		c1.5,0,2.9,0.3,4.1,0.8c1.2,0.5,2.3,1.3,3.2,2.2c0.9,0.9,1.5,2,2,3.2c0.5,1.2,0.7,2.5,0.7,3.8c0,0.3,0,0.6,0,0.8
		c0,0.3-0.1,0.5-0.1,0.7h-15.7c0.1,0.9,0.3,1.7,0.6,2.4s0.8,1.3,1.3,1.8c0.5,0.5,1.1,0.9,1.8,1.2c0.7,0.3,1.4,0.4,2.2,0.4
		c0.5,0,1.1-0.1,1.6-0.2c0.5-0.1,1-0.3,1.5-0.6c0.4-0.3,0.8-0.6,1.2-1c0.3-0.4,0.6-0.8,0.8-1.2l3.5,1c-0.7,1.5-1.8,2.7-3.3,3.6
		C261.2,481.8,259.4,482.3,257.3,482.3z M263.3,470.7c-0.1-0.8-0.3-1.6-0.6-2.3c-0.3-0.7-0.8-1.3-1.3-1.8c-0.5-0.5-1.1-0.9-1.8-1.1
		c-0.7-0.3-1.4-0.4-2.2-0.4c-0.8,0-1.5,0.1-2.2,0.4c-0.7,0.3-1.3,0.7-1.8,1.1c-0.5,0.5-0.9,1.1-1.3,1.8c-0.3,0.7-0.5,1.5-0.6,2.3
		H263.3z"/>
	<path class="st0" d="M288.7,482.3c-1.5,0-2.9-0.3-4.2-0.8c-1.2-0.5-2.3-1.3-3.2-2.2c-0.9-0.9-1.5-2-2-3.2s-0.7-2.5-0.7-3.9
		s0.2-2.6,0.7-3.9s1.2-2.3,2-3.2c0.9-0.9,1.9-1.7,3.2-2.2s2.6-0.8,4.1-0.8c1.5,0,2.9,0.3,4.1,0.8c1.2,0.5,2.3,1.3,3.2,2.2
		c0.9,0.9,1.6,2,2,3.2c0.5,1.2,0.7,2.5,0.7,3.9s-0.2,2.6-0.7,3.9c-0.5,1.2-1.2,2.3-2,3.2s-1.9,1.7-3.2,2.2
		C291.6,482,290.3,482.3,288.7,482.3z M282.9,472.2c0,0.9,0.1,1.8,0.4,2.6s0.7,1.5,1.2,2.1c0.5,0.6,1.1,1,1.9,1.4
		c0.7,0.3,1.5,0.5,2.3,0.5c0.8,0,1.6-0.2,2.3-0.5c0.7-0.3,1.3-0.8,1.9-1.4c0.5-0.6,0.9-1.3,1.2-2.1c0.3-0.8,0.4-1.7,0.4-2.6
		c0-0.9-0.1-1.8-0.4-2.6c-0.3-0.8-0.7-1.5-1.2-2.1c-0.5-0.6-1.1-1.1-1.9-1.4c-0.7-0.3-1.5-0.5-2.3-0.5c-0.8,0-1.6,0.2-2.3,0.5
		c-0.7,0.3-1.3,0.8-1.9,1.4c-0.5,0.6-0.9,1.3-1.3,2.1S282.9,471.3,282.9,472.2z"/>
	<path class="st0" d="M303.3,481.9V466h-2.6v-3.2h2.6V462c0-2.4,0.6-4.3,1.7-5.7c1.1-1.4,2.6-2.1,4.6-2.1c0.8,0,1.6,0.1,2.4,0.3
		s1.5,0.5,2.2,0.9l-0.9,3.1c-0.4-0.2-0.8-0.4-1.3-0.6c-0.5-0.1-1-0.2-1.5-0.2c-1,0-1.7,0.4-2.2,1.1c-0.5,0.7-0.8,1.8-0.8,3.1v0.9h5
		v3.2h-5v15.9H303.3z"/>
	<path class="st0" d="M323.6,486.5c0.4,0.1,0.7,0.1,1.1,0.2c0.4,0,0.7,0.1,0.9,0.1c0.3,0,0.6-0.1,0.8-0.2c0.2-0.1,0.5-0.4,0.7-0.7
		c0.2-0.3,0.5-0.8,0.8-1.5c0.3-0.6,0.6-1.5,0.9-2.5l-8-19.6h4.2l6.1,15.9l5.4-15.9h3.9l-8.9,24.1c-0.4,1.1-1.1,2.1-2.1,2.8
		c-1,0.8-2.3,1.1-3.8,1.1c-0.3,0-0.6,0-0.9-0.1s-0.7-0.1-1.1-0.2V486.5z"/>
	<path class="st0" d="M351.5,482.3c-1.5,0-2.9-0.3-4.2-0.8c-1.2-0.5-2.3-1.3-3.2-2.2c-0.9-0.9-1.5-2-2-3.2c-0.5-1.2-0.7-2.5-0.7-3.9
		s0.2-2.6,0.7-3.9c0.5-1.2,1.2-2.3,2-3.2c0.9-0.9,1.9-1.7,3.2-2.2s2.6-0.8,4.1-0.8c1.5,0,2.9,0.3,4.1,0.8c1.2,0.5,2.3,1.3,3.2,2.2
		c0.9,0.9,1.6,2,2,3.2s0.7,2.5,0.7,3.9s-0.2,2.6-0.7,3.9s-1.2,2.3-2,3.2s-1.9,1.7-3.2,2.2C354.4,482,353,482.3,351.5,482.3z
		 M345.7,472.2c0,0.9,0.1,1.8,0.4,2.6c0.3,0.8,0.7,1.5,1.2,2.1c0.5,0.6,1.1,1,1.9,1.4s1.5,0.5,2.3,0.5s1.6-0.2,2.3-0.5
		c0.7-0.3,1.3-0.8,1.9-1.4c0.5-0.6,0.9-1.3,1.2-2.1c0.3-0.8,0.4-1.7,0.4-2.6c0-0.9-0.1-1.8-0.4-2.6c-0.3-0.8-0.7-1.5-1.2-2.1
		c-0.5-0.6-1.1-1.1-1.9-1.4c-0.7-0.3-1.5-0.5-2.3-0.5c-0.8,0-1.6,0.2-2.3,0.5s-1.3,0.8-1.9,1.4s-0.9,1.3-1.3,2.1
		C345.8,470.4,345.7,471.3,345.7,472.2z"/>
	<path class="st0" d="M371.3,482.3c-2,0-3.6-0.7-4.6-2c-1-1.3-1.6-3.3-1.6-6v-12h4.1v11.2c0,3.5,1.2,5.3,3.7,5.3
		c1.2,0,2.3-0.4,3.3-1.1s1.9-1.8,2.4-3.1v-12.2h4.1v14.7c0,0.5,0.1,0.8,0.2,1c0.2,0.2,0.5,0.3,0.9,0.3v3.5c-0.4,0.1-0.8,0.1-1,0.1
		s-0.5,0-0.8,0c-0.7,0-1.4-0.2-1.9-0.6c-0.5-0.4-0.8-0.9-0.8-1.6l-0.1-1.9c-0.9,1.4-2,2.5-3.4,3.2
		C374.5,481.9,373,482.3,371.3,482.3z"/>
	<path class="st0" d="M399.1,465.9c-1.6,0.1-3,0.4-4.2,1.1c-1.2,0.7-2.1,1.7-2.6,2.9v12H388v-19.6h3.8v4.4c0.7-1.3,1.6-2.4,2.6-3.2
		c1.1-0.8,2.3-1.3,3.5-1.3c0.2,0,0.5,0,0.6,0c0.2,0,0.3,0,0.4,0V465.9z"/>
	<path class="st0" d="M410.4,459.1v-4.5h4.1v4.5H410.4z M410.4,481.9v-19.6h4.1v19.6H410.4z"/>
	<path class="st0" d="M437,481.9h-4.1v-11c0-1.8-0.3-3.2-0.9-4c-0.6-0.8-1.5-1.3-2.6-1.3c-0.6,0-1.2,0.1-1.8,0.3s-1.2,0.5-1.7,1
		c-0.5,0.4-1,0.9-1.4,1.5s-0.7,1.2-1,1.9v11.6h-4.1v-19.6h3.7v3.9c0.7-1.3,1.8-2.4,3.3-3.1c1.4-0.8,3-1.1,4.7-1.1
		c1.2,0,2.1,0.2,2.9,0.6c0.7,0.4,1.3,1,1.8,1.7c0.4,0.7,0.7,1.6,0.9,2.5c0.2,1,0.3,2,0.3,3.1V481.9z"/>
	<path class="st0" d="M448.9,482.3c-1.6,0-3.1-0.3-4.7-0.8c-1.6-0.5-2.9-1.2-4-2.2l1.6-2.6c1.2,0.8,2.3,1.5,3.5,1.9
		c1.1,0.4,2.3,0.7,3.5,0.7c1.2,0,2.2-0.2,2.9-0.7s1.1-1.1,1.1-2c0-0.8-0.4-1.4-1.2-1.8c-0.8-0.4-2-0.8-3.7-1.2
		c-1.2-0.3-2.3-0.6-3.1-0.9c-0.9-0.3-1.6-0.6-2.1-1c-0.5-0.4-0.9-0.9-1.2-1.4c-0.2-0.5-0.4-1.2-0.4-1.9c0-1,0.2-1.9,0.6-2.7
		s0.9-1.4,1.6-2c0.7-0.5,1.5-0.9,2.4-1.2s1.9-0.4,3-0.4c1.5,0,2.8,0.2,4.1,0.7s2.4,1.1,3.4,1.9l-1.8,2.5c-1.8-1.4-3.8-2.2-5.8-2.2
		c-1,0-1.9,0.2-2.6,0.7s-1.1,1.1-1.1,2.1c0,0.4,0.1,0.7,0.2,1s0.4,0.5,0.7,0.7c0.3,0.2,0.8,0.4,1.3,0.5c0.5,0.2,1.2,0.3,2,0.5
		c1.3,0.3,2.5,0.6,3.4,1s1.8,0.7,2.4,1.1s1.1,0.9,1.4,1.5c0.3,0.6,0.4,1.3,0.4,2.1c0,1.9-0.7,3.3-2.1,4.4
		C453.2,481.8,451.3,482.3,448.9,482.3z"/>
	<path class="st0" d="M471.3,480.9c-0.5,0.2-1.2,0.5-2.2,0.8c-0.9,0.3-1.9,0.5-3,0.5c-0.6,0-1.3-0.1-1.8-0.3
		c-0.6-0.2-1.1-0.4-1.5-0.8c-0.4-0.3-0.8-0.8-1-1.4c-0.2-0.6-0.4-1.2-0.4-2v-12.2h-2.6v-3.2h2.6v-6.4h4.1v6.4h4.3v3.2h-4.3v10.9
		c0,0.7,0.3,1.2,0.7,1.5c0.4,0.3,0.9,0.5,1.4,0.5s1.1-0.1,1.6-0.3c0.5-0.2,0.9-0.4,1.2-0.5L471.3,480.9z"/>
	<path class="st0" d="M479.3,482.3c-0.9,0-1.8-0.2-2.6-0.5c-0.8-0.3-1.5-0.7-2.1-1.3c-0.6-0.5-1-1.2-1.4-1.9
		c-0.3-0.7-0.5-1.6-0.5-2.4c0-0.9,0.2-1.8,0.6-2.5c0.4-0.7,1-1.4,1.7-1.9c0.7-0.5,1.6-1,2.6-1.3c1-0.3,2.1-0.4,3.4-0.4
		c0.9,0,1.8,0.1,2.7,0.2c0.9,0.2,1.7,0.4,2.4,0.7v-1.3c0-1.4-0.4-2.6-1.2-3.4s-2-1.2-3.6-1.2c-1,0-2.1,0.2-3.1,0.6s-2.1,0.9-3.1,1.7
		l-1.3-2.6c2.5-1.7,5.1-2.5,7.9-2.5c2.7,0,4.8,0.7,6.3,2.1c1.5,1.4,2.2,3.3,2.2,5.9v7.1c0,0.9,0.4,1.3,1.1,1.3v3.5
		c-0.4,0.1-0.7,0.1-1,0.1s-0.6,0-0.8,0c-0.8,0-1.4-0.2-1.9-0.6c-0.4-0.4-0.7-0.9-0.8-1.5l-0.1-1.2c-0.9,1.1-2,2-3.2,2.6
		S480.8,482.3,479.3,482.3z M480.4,479.3c1,0,1.9-0.2,2.8-0.5c0.9-0.4,1.6-0.9,2.1-1.5c0.5-0.4,0.8-0.9,0.8-1.4v-2.6
		c-0.7-0.3-1.4-0.5-2.2-0.6s-1.6-0.2-2.3-0.2c-1.5,0-2.7,0.3-3.6,1c-0.9,0.6-1.4,1.5-1.4,2.5c0,1,0.4,1.8,1.1,2.5
		C478.4,478.9,479.3,479.3,480.4,479.3z"/>
	<path class="st0" d="M495.2,454.6h4.1v21.7c0,0.7,0.2,1.3,0.6,1.7c0.4,0.4,0.9,0.6,1.6,0.6c0.3,0,0.6,0,1-0.2
		c0.4-0.1,0.7-0.2,1-0.3l0.6,3.2c-0.6,0.3-1.3,0.5-2.1,0.7c-0.8,0.2-1.6,0.2-2.2,0.2c-1.4,0-2.5-0.4-3.3-1.2
		c-0.8-0.8-1.2-1.9-1.2-3.3V454.6z"/>
	<path class="st0" d="M506.5,454.6h4.1v21.7c0,0.7,0.2,1.3,0.6,1.7c0.4,0.4,0.9,0.6,1.6,0.6c0.3,0,0.6,0,1-0.2
		c0.4-0.1,0.7-0.2,1-0.3l0.6,3.2c-0.6,0.3-1.3,0.5-2.1,0.7c-0.8,0.2-1.6,0.2-2.2,0.2c-1.4,0-2.5-0.4-3.3-1.2
		c-0.8-0.8-1.2-1.9-1.2-3.3V454.6z"/>
	<path class="st0" d="M522.9,482.3c-0.9,0-1.8-0.2-2.6-0.5s-1.5-0.7-2.1-1.3c-0.6-0.5-1-1.2-1.4-1.9c-0.3-0.7-0.5-1.6-0.5-2.4
		c0-0.9,0.2-1.8,0.6-2.5c0.4-0.7,1-1.4,1.7-1.9c0.7-0.5,1.6-1,2.6-1.3c1-0.3,2.1-0.4,3.3-0.4c0.9,0,1.8,0.1,2.7,0.2
		c0.9,0.2,1.7,0.4,2.4,0.7v-1.3c0-1.4-0.4-2.6-1.2-3.4c-0.8-0.8-2-1.2-3.6-1.2c-1,0-2.1,0.2-3.1,0.6s-2.1,0.9-3.1,1.7l-1.3-2.6
		c2.5-1.7,5.1-2.5,7.9-2.5c2.7,0,4.8,0.7,6.3,2.1c1.5,1.4,2.2,3.3,2.2,5.9v7.1c0,0.9,0.4,1.3,1.1,1.3v3.5c-0.4,0.1-0.7,0.1-1,0.1
		c-0.3,0-0.6,0-0.8,0c-0.8,0-1.4-0.2-1.9-0.6c-0.4-0.4-0.7-0.9-0.8-1.5l-0.1-1.2c-0.9,1.1-2,2-3.2,2.6S524.4,482.3,522.9,482.3z
		 M524.1,479.3c1,0,1.9-0.2,2.8-0.5c0.9-0.4,1.6-0.9,2.1-1.5c0.5-0.4,0.8-0.9,0.8-1.4v-2.6c-0.7-0.3-1.4-0.5-2.2-0.6
		s-1.6-0.2-2.3-0.2c-1.5,0-2.7,0.3-3.6,1c-0.9,0.6-1.4,1.5-1.4,2.5c0,1,0.4,1.8,1.1,2.5S522.9,479.3,524.1,479.3z"/>
	<path class="st0" d="M549.6,480.9c-0.5,0.2-1.2,0.5-2.2,0.8c-0.9,0.3-1.9,0.5-3,0.5c-0.6,0-1.3-0.1-1.8-0.3
		c-0.6-0.2-1.1-0.4-1.5-0.8c-0.4-0.3-0.8-0.8-1-1.4c-0.2-0.6-0.4-1.2-0.4-2v-12.2h-2.6v-3.2h2.6v-6.4h4.1v6.4h4.3v3.2h-4.3v10.9
		c0,0.7,0.3,1.2,0.7,1.5c0.4,0.3,0.9,0.5,1.4,0.5c0.6,0,1.1-0.1,1.6-0.3c0.5-0.2,0.9-0.4,1.2-0.5L549.6,480.9z"/>
	<path class="st0" d="M552.4,459.1v-4.5h4.1v4.5H552.4z M552.4,481.9v-19.6h4.1v19.6H552.4z"/>
	<path class="st0" d="M570.3,482.3c-1.5,0-2.9-0.3-4.2-0.8c-1.2-0.5-2.3-1.3-3.2-2.2c-0.9-0.9-1.5-2-2-3.2c-0.5-1.2-0.7-2.5-0.7-3.9
		s0.2-2.6,0.7-3.9c0.5-1.2,1.2-2.3,2-3.2c0.9-0.9,1.9-1.7,3.2-2.2s2.6-0.8,4.1-0.8c1.5,0,2.9,0.3,4.1,0.8c1.2,0.5,2.3,1.3,3.2,2.2
		c0.9,0.9,1.6,2,2,3.2s0.7,2.5,0.7,3.9s-0.2,2.6-0.7,3.9s-1.2,2.3-2,3.2s-1.9,1.7-3.2,2.2C573.2,482,571.8,482.3,570.3,482.3z
		 M564.5,472.2c0,0.9,0.1,1.8,0.4,2.6c0.3,0.8,0.7,1.5,1.2,2.1c0.5,0.6,1.1,1,1.9,1.4s1.5,0.5,2.3,0.5s1.6-0.2,2.3-0.5
		c0.7-0.3,1.3-0.8,1.9-1.4c0.5-0.6,0.9-1.3,1.2-2.1c0.3-0.8,0.4-1.7,0.4-2.6c0-0.9-0.1-1.8-0.4-2.6c-0.3-0.8-0.7-1.5-1.2-2.1
		c-0.5-0.6-1.1-1.1-1.9-1.4c-0.7-0.3-1.5-0.5-2.3-0.5c-0.8,0-1.6,0.2-2.3,0.5s-1.3,0.8-1.9,1.4s-0.9,1.3-1.3,2.1
		C564.6,470.4,564.5,471.3,564.5,472.2z"/>
	<path class="st0" d="M601.6,481.9h-4.1v-11c0-1.8-0.3-3.2-0.9-4c-0.6-0.8-1.5-1.3-2.6-1.3c-0.6,0-1.2,0.1-1.8,0.3
		c-0.6,0.2-1.2,0.5-1.7,1c-0.5,0.4-1,0.9-1.4,1.5c-0.4,0.6-0.7,1.2-1,1.9v11.6H584v-19.6h3.7v3.9c0.7-1.3,1.8-2.4,3.3-3.1
		c1.4-0.8,3-1.1,4.7-1.1c1.2,0,2.1,0.2,2.9,0.6c0.7,0.4,1.3,1,1.8,1.7c0.4,0.7,0.7,1.6,0.9,2.5c0.2,1,0.3,2,0.3,3.1V481.9z"/>
</g>
</svg>
